<svg width="25" height="35" viewBox="0 0 25 35" fill="none" xmlns="http://www.w3.org/2000/svg">
<path fill-rule="evenodd" clip-rule="evenodd" d="M3 0C1.34315 0 0 1.34315 0 3V32C0 33.6569 1.34315 35 3 35H22C23.6569 35 25 33.6569 25 32V3C25 1.34315 23.6569 0 22 0H3ZM4 4C3.44772 4 3 4.44772 3 5V8C3 8.55229 3.44771 9 4 9H21C21.5523 9 22 8.55229 22 8V5C22 4.44772 21.5523 4 21 4H4ZM14 17C14 16.4477 14.4477 16 15 16H21C21.5523 16 22 16.4477 22 17C22 17.5523 21.5523 18 21 18H15C14.4477 18 14 17.5523 14 17ZM4 16C3.44772 16 3 16.4477 3 17C3 17.5523 3.44772 18 4 18H6.00049V20.0005C6.00049 20.5528 6.4482 21.0005 7.00049 21.0005C7.55277 21.0005 8.00049 20.5528 8.00049 20.0005V18H10C10.5523 18 11 17.5523 11 17C11 16.4477 10.5523 16 10 16H8.00049V14.0005C8.00049 13.4482 7.55277 13.0005 7.00049 13.0005C6.4482 13.0005 6.00049 13.4482 6.00049 14.0005V16H4ZM4.17134 29.4139C3.78082 29.8044 3.78082 30.4376 4.17134 30.8281C4.56187 31.2186 5.19503 31.2186 5.58556 30.8281L7.00012 29.4135L8.41467 30.8281C8.8052 31.2186 9.43836 31.2186 9.82889 30.8281C10.2194 30.4376 10.2194 29.8044 9.82889 29.4139L8.41433 27.9993L9.8282 26.5854C10.2187 26.1949 10.2187 25.5618 9.8282 25.1712C9.43767 24.7807 8.80451 24.7807 8.41398 25.1712L7.00011 26.5851L5.58625 25.1712C5.19572 24.7807 4.56256 24.7807 4.17203 25.1712C3.78151 25.5618 3.78151 26.1949 4.17203 26.5854L5.5859 27.9993L4.17134 29.4139ZM15.172 29.4145C14.7814 29.805 14.7814 30.4382 15.172 30.8287C15.5625 31.2192 16.1956 31.2192 16.5862 30.8287L20.8288 26.586C21.2193 26.1955 21.2193 25.5624 20.8288 25.1718C20.4383 24.7813 19.8051 24.7813 19.4146 25.1718L15.172 29.4145ZM17 26C17 26.5523 16.5523 27 16 27C15.4477 27 15 26.5523 15 26C15 25.4477 15.4477 25 16 25C16.5523 25 17 25.4477 17 26ZM20 31C20.5523 31 21 30.5523 21 30C21 29.4477 20.5523 29 20 29C19.4477 29 19 29.4477 19 30C19 30.5523 19.4477 31 20 31Z" fill="black"/>
</svg>
